<svg width="989" height="839" viewBox="0 0 989 839" fill="none" xmlns="http://www.w3.org/2000/svg">
<path d="M118.232 0.18899C120.031 0.184353 121.829 0.179327 123.627 0.173945C128.488 0.160903 133.348 0.154392 138.208 0.149935C141.256 0.146989 144.303 0.142882 147.351 0.13843C156.919 0.124774 166.487 0.1151 176.056 0.111229C187.039 0.106758 198.023 0.0892516 209.007 0.060228C217.536 0.0384848 226.066 0.0285175 234.596 0.0271874C239.671 0.026148 244.746 0.0204269 249.822 0.00236783C301.189 -0.169949 337.516 9.02198 378.382 40.9839C405.448 62.7091 405.448 62.7091 438.144 72.5215C438.964 72.6012 439.784 72.681 440.63 72.7631C449.448 73.5569 458.238 73.6308 467.086 73.6084C468.9 73.6113 470.714 73.615 472.528 73.6195C477.456 73.6294 482.383 73.6272 487.311 73.6228C492.648 73.6203 497.984 73.6294 503.321 73.6372C512.554 73.6492 521.787 73.6544 531.02 73.6551C544.395 73.6564 557.77 73.6716 571.145 73.6906C592.884 73.7214 614.622 73.7456 636.362 73.7635C638.31 73.7651 638.31 73.7651 640.297 73.7667C654.782 73.7785 669.266 73.7887 683.75 73.7971C689.001 73.8002 694.252 73.8033 699.503 73.8064C701.447 73.8076 701.447 73.8076 703.43 73.8087C725.086 73.8219 746.742 73.8465 768.398 73.8802C781.728 73.9004 795.058 73.9108 808.388 73.9082C817.532 73.9071 826.676 73.9169 835.82 73.9348C841.082 73.9448 846.345 73.9501 851.608 73.942C891.584 73.8871 931.071 73.9843 961.672 103.694C973.185 115.879 980.797 130.886 984.508 147.163C984.659 147.824 984.811 148.486 984.966 149.167C988.257 164.971 988.547 180.7 988.512 196.768C988.515 199.105 988.518 201.442 988.522 203.779C988.53 210.161 988.526 216.543 988.52 222.925C988.515 229.114 988.521 235.303 988.526 241.492C988.537 254.921 988.536 268.35 988.53 281.779C988.525 293.531 988.523 305.284 988.526 317.036C988.526 318.208 988.526 318.208 988.526 319.403C988.527 322.574 988.528 325.745 988.528 328.915C988.534 358.631 988.529 388.347 988.518 418.063C988.509 444.435 988.509 470.808 988.519 497.18C988.53 526.843 988.534 556.506 988.528 586.169C988.527 589.334 988.526 592.499 988.526 595.664C988.526 596.443 988.526 597.223 988.525 598.025C988.523 609.767 988.526 621.509 988.531 633.251C988.537 646.609 988.535 659.967 988.524 673.324C988.519 680.136 988.517 686.947 988.524 693.758C988.53 700 988.526 706.242 988.516 712.485C988.513 714.736 988.514 716.986 988.519 719.237C988.588 753.758 984.063 785.843 959.094 811.6C936.561 833.45 904.828 838.525 874.665 838.482C873.316 838.483 871.966 838.485 870.617 838.488C866.921 838.493 863.226 838.493 859.53 838.491C855.504 838.49 851.479 838.495 847.453 838.5C839.474 838.507 831.496 838.509 823.517 838.51C813.957 838.511 804.397 838.517 794.838 838.524C771.733 838.54 748.629 838.546 725.525 838.551C714.59 838.553 703.655 838.557 692.72 838.561C655.27 838.574 617.821 838.584 580.371 838.588C578.021 838.588 575.671 838.588 573.321 838.588C570.965 838.589 568.61 838.589 566.254 838.589C561.528 838.589 556.803 838.59 552.077 838.59C550.905 838.59 549.733 838.591 548.526 838.591C510.548 838.594 472.57 838.61 434.592 838.634C394.417 838.658 354.242 838.672 314.067 838.673C309.653 838.673 305.24 838.673 300.826 838.674C299.74 838.674 298.653 838.674 297.533 838.674C280.074 838.675 262.614 838.686 245.154 838.701C227.591 838.715 210.029 838.718 192.466 838.71C182.044 838.706 171.622 838.709 161.2 838.725C154.223 838.735 147.246 838.734 140.269 838.724C136.304 838.719 132.339 838.718 128.373 838.73C83.2056 838.866 83.2056 838.866 62.2583 831.35C61.2631 831.003 60.268 830.657 59.2426 830.299C37.8994 822.17 20.7781 806.295 10.8833 785.788C2.97726 767.348 0.0883335 748.003 0.129633 728.049C0.12788 726.961 0.126122 725.873 0.124316 724.751C0.119675 721.116 0.122119 717.48 0.124552 713.845C0.122683 711.208 0.120421 708.57 0.117686 705.933C0.112546 700.204 0.111117 694.476 0.112147 688.747C0.113674 680.228 0.109498 671.709 0.104266 663.19C0.0946026 647.088 0.091785 630.986 0.0912118 614.883C0.090752 602.446 0.0886936 590.009 0.0855127 577.572C0.0846151 573.99 0.0837222 570.408 0.0828347 566.825C0.0825032 565.49 0.0825016 565.49 0.0821634 564.127C0.0760104 539.081 0.0720682 514.036 0.0725122 488.991C0.0725278 488.047 0.0725419 487.103 0.0725579 486.13C0.072641 481.346 0.0727377 476.561 0.0728402 471.777C0.0728602 470.827 0.0728807 469.877 0.0729013 468.898C0.0729417 466.977 0.0729802 465.055 0.0730233 463.134C0.073636 433.244 0.0661346 403.355 0.0524545 373.466C0.037085 339.872 0.0284924 306.278 0.0294213 272.683C0.029496 269.099 0.029543 265.515 0.0295739 261.931C0.0295856 261.049 0.0295925 260.166 0.0296045 259.257C0.0296352 245.073 0.023263 230.888 0.0146432 216.704C0.0061553 202.441 0.00518484 188.179 0.0117517 173.916C0.0154397 165.45 0.0136374 156.984 0.00380947 148.519C-0.00220896 142.854 -0.000880632 137.19 0.00627377 131.525C0.0101396 128.304 0.00985688 125.083 0.00281765 121.862C-0.0689084 86.6989 3.60406 53.6132 29.2114 27.2407C53.0709 3.88154 86.4696 0.208202 118.232 0.18899Z" fill="#71CEF9"/>
<path d="M118.232 0.18899C120.031 0.184353 121.829 0.179327 123.627 0.173945C128.488 0.160903 133.348 0.154392 138.208 0.149935C141.256 0.146989 144.303 0.142882 147.351 0.13843C156.919 0.124774 166.487 0.1151 176.056 0.111229C187.039 0.106758 198.023 0.0892516 209.007 0.060228C217.536 0.0384848 226.066 0.0285175 234.596 0.0271874C239.671 0.026148 244.747 0.0204269 249.822 0.00236783C301.189 -0.169949 337.516 9.02198 378.382 40.9839C405.448 62.7091 405.448 62.7091 438.144 72.5215C438.964 72.6012 439.784 72.681 440.63 72.7631C449.448 73.5569 458.238 73.6308 467.086 73.6084C468.9 73.6113 470.714 73.615 472.528 73.6195C477.456 73.6294 482.383 73.6272 487.311 73.6228C492.648 73.6203 497.984 73.6294 503.321 73.6372C512.554 73.6492 521.787 73.6544 531.02 73.6551C544.395 73.6564 557.77 73.6716 571.145 73.6906C592.884 73.7214 614.622 73.7456 636.362 73.7635C638.31 73.7651 638.31 73.7651 640.297 73.7667C654.782 73.7785 669.266 73.7887 683.75 73.7971C689.001 73.8002 694.252 73.8033 699.503 73.8064C701.447 73.8076 701.447 73.8076 703.43 73.8087C725.086 73.8219 746.742 73.8465 768.398 73.8802C781.728 73.9004 795.058 73.9108 808.388 73.9082C817.532 73.9071 826.676 73.9169 835.82 73.9348C841.082 73.9448 846.345 73.9501 851.608 73.942C891.583 73.8871 931.071 73.9843 961.672 103.694C973.185 115.879 980.797 130.886 984.508 147.163C984.659 147.824 984.811 148.486 984.966 149.167C988.257 164.971 988.547 180.7 988.512 196.768C988.515 199.105 988.518 201.442 988.522 203.779C988.53 210.161 988.526 216.543 988.52 222.925C988.515 229.114 988.521 235.303 988.526 241.492C988.536 254.921 988.536 268.35 988.53 281.779C988.525 293.531 988.523 305.284 988.526 317.036C988.526 318.208 988.526 318.208 988.526 319.403C988.527 322.574 988.528 325.745 988.528 328.915C988.534 358.631 988.529 388.347 988.518 418.063C988.509 444.435 988.509 470.808 988.519 497.18C988.53 526.843 988.534 556.506 988.528 586.169C988.527 589.334 988.526 592.499 988.526 595.664C988.526 596.443 988.526 597.223 988.525 598.025C988.523 609.767 988.526 621.509 988.531 633.251C988.537 646.609 988.535 659.967 988.524 673.324C988.519 680.136 988.517 686.947 988.524 693.758C988.53 700 988.526 706.242 988.516 712.485C988.513 714.736 988.514 716.986 988.519 719.237C988.588 753.758 984.063 785.844 959.094 811.6C936.561 833.45 904.828 838.525 874.665 838.482C873.316 838.483 871.966 838.485 870.617 838.488C866.921 838.493 863.226 838.493 859.53 838.491C855.504 838.49 851.479 838.495 847.453 838.5C839.474 838.507 831.496 838.509 823.517 838.51C813.957 838.511 804.397 838.517 794.838 838.524C771.733 838.54 748.629 838.546 725.525 838.551C714.59 838.553 703.655 838.557 692.72 838.561C655.27 838.573 617.82 838.584 580.371 838.588C578.021 838.588 575.671 838.588 573.321 838.588C570.965 838.589 568.609 838.589 566.254 838.589C561.528 838.589 556.802 838.59 552.077 838.59C550.905 838.59 549.734 838.591 548.526 838.591C510.548 838.594 472.57 838.61 434.592 838.634C394.417 838.658 354.242 838.672 314.067 838.673C309.653 838.673 305.24 838.673 300.826 838.674C299.74 838.674 298.653 838.674 297.533 838.674C280.074 838.675 262.614 838.686 245.154 838.701C227.591 838.715 210.029 838.718 192.466 838.71C182.044 838.706 171.622 838.709 161.2 838.725C154.223 838.735 147.246 838.734 140.269 838.724C136.304 838.719 132.339 838.718 128.373 838.73C83.2056 838.866 83.2056 838.866 62.2583 831.35C61.2631 831.003 60.268 830.657 59.2426 830.299C37.8994 822.17 20.7781 806.295 10.8833 785.788C2.97726 767.348 0.0883335 748.003 0.129633 728.049C0.12788 726.961 0.126122 725.873 0.124316 724.751C0.119675 721.116 0.122119 717.48 0.124552 713.845C0.122683 711.208 0.120421 708.57 0.117686 705.933C0.112546 700.204 0.111117 694.476 0.112147 688.747C0.113674 680.228 0.109498 671.709 0.104266 663.19C0.0946026 647.088 0.091785 630.986 0.0912118 614.883C0.090752 602.446 0.0886936 590.009 0.0855127 577.572C0.0846151 573.99 0.0837222 570.408 0.0828347 566.825C0.0825032 565.49 0.0825016 565.49 0.0821634 564.127C0.0760104 539.081 0.0720682 514.036 0.0725122 488.991C0.0725278 488.047 0.0725419 487.103 0.0725579 486.13C0.072641 481.346 0.0727377 476.561 0.0728402 471.777C0.0728602 470.827 0.0728807 469.877 0.0729013 468.898C0.0729417 466.977 0.0729802 465.055 0.0730233 463.134C0.073636 433.244 0.0661346 403.355 0.0524545 373.466C0.037085 339.872 0.0284924 306.278 0.0294213 272.683C0.029496 269.099 0.029543 265.515 0.0295739 261.931C0.0295856 261.049 0.0295925 260.166 0.0296045 259.257C0.0296352 245.073 0.023263 230.888 0.0146432 216.704C0.0061553 202.441 0.00518484 188.179 0.0117517 173.916C0.0154397 165.45 0.0136374 156.984 0.00380947 148.519C-0.00220896 142.854 -0.000880632 137.19 0.00627377 131.525C0.0101396 128.304 0.00985688 125.083 0.00281765 121.862C-0.0689084 86.6989 3.60406 53.6133 29.2114 27.2407C53.0709 3.88154 86.4696 0.208202 118.232 0.18899ZM43.2583 171.35C18.3394 199.731 23.9555 240.758 23.9822 275.897C23.9846 282.053 23.9756 288.209 23.9681 294.365C23.9554 306.389 23.9536 318.412 23.9559 330.435C23.9578 340.21 23.956 349.984 23.9517 359.759C23.9511 361.169 23.9505 362.579 23.9499 363.989C23.949 366.114 23.9481 368.24 23.9472 370.365C23.9387 390.086 23.9344 409.807 23.9386 429.527C23.9387 430.269 23.9389 431.01 23.939 431.774C23.9398 435.53 23.9407 439.286 23.9416 443.042C23.9417 443.788 23.9419 444.534 23.9421 445.302C23.9424 446.811 23.9428 448.319 23.9431 449.827C23.9485 473.321 23.9405 496.815 23.9221 520.309C23.9013 546.765 23.8906 573.221 23.8947 599.677C23.8951 602.5 23.8954 605.323 23.8958 608.146C23.8958 608.84 23.8959 609.535 23.896 610.251C23.8972 620.714 23.8906 631.176 23.8799 641.638C23.8679 653.535 23.8666 665.433 23.8787 677.33C23.8846 683.394 23.8857 689.458 23.8737 695.522C23.8629 701.081 23.866 706.64 23.88 712.199C23.8826 714.201 23.8803 716.203 23.8723 718.206C23.7804 742.809 27.5114 765.384 44.9028 784.155C62.1314 800.212 82.8655 804.514 105.752 804.482C107.127 804.483 108.502 804.485 109.878 804.488C113.659 804.493 117.441 804.493 121.222 804.491C125.335 804.49 129.449 804.495 133.562 804.5C141.722 804.507 149.881 804.509 158.04 804.51C167.814 804.511 177.587 804.517 187.36 804.524C210.981 804.54 234.602 804.546 258.223 804.551C269.398 804.553 280.574 804.557 291.749 804.561C330.006 804.573 368.263 804.584 406.52 804.588C408.922 804.588 411.323 804.588 413.725 804.588C416.132 804.589 418.539 804.589 420.946 804.589C425.775 804.589 430.605 804.59 435.434 804.59C436.631 804.59 437.829 804.591 439.062 804.591C477.885 804.594 516.708 804.61 555.532 804.634C596.582 804.658 637.632 804.672 678.682 804.673C683.189 804.673 687.696 804.673 692.203 804.674C693.312 804.674 694.422 804.674 695.565 804.674C713.418 804.675 731.271 804.686 749.123 804.701C767.071 804.715 785.018 804.718 802.965 804.71C813.624 804.706 824.283 804.709 834.942 804.725C842.068 804.735 849.194 804.734 856.321 804.724C860.377 804.719 864.433 804.718 868.489 804.73C895.845 804.81 921.93 804.062 943.289 784.409C958.457 768.549 964.443 749.079 964.387 727.499C964.389 726.639 964.39 725.78 964.392 724.894C964.397 722.017 964.394 719.141 964.392 716.264C964.394 714.179 964.396 712.094 964.399 710.008C964.405 704.281 964.405 698.553 964.404 692.826C964.403 686.647 964.409 680.468 964.414 674.289C964.422 662.18 964.425 650.072 964.425 637.964C964.426 628.115 964.428 618.266 964.431 608.417C964.432 605.58 964.433 602.742 964.434 599.905C964.434 599.199 964.434 598.494 964.434 597.767C964.44 577.922 964.444 558.077 964.444 538.232C964.444 537.483 964.444 536.735 964.444 535.964C964.444 532.173 964.444 528.381 964.444 524.589C964.444 523.836 964.444 523.083 964.444 522.307C964.444 520.785 964.444 519.262 964.443 517.739C964.443 494.08 964.45 470.421 964.464 446.762C964.479 420.159 964.488 393.555 964.487 366.952C964.487 364.109 964.487 361.267 964.487 358.424C964.487 357.724 964.487 357.024 964.487 356.303C964.487 345.084 964.493 333.864 964.502 322.644C964.51 311.344 964.511 300.044 964.505 288.744C964.502 282.633 964.501 276.521 964.51 270.41C964.518 264.799 964.516 259.187 964.508 253.576C964.506 251.562 964.508 249.549 964.514 247.535C964.542 236.811 964.227 226.177 963.38 215.483C963.304 214.493 963.228 213.503 963.149 212.483C961.503 193.592 952.806 178.28 939.258 165.35C922.073 150.937 900.681 148.019 879.003 148.096C877.63 148.093 876.258 148.09 874.885 148.086C871.143 148.077 867.402 148.081 863.661 148.087C859.578 148.091 855.496 148.084 851.414 148.078C844.27 148.069 837.125 148.068 829.98 148.071C819.356 148.077 808.731 148.071 798.106 148.062C778.024 148.047 757.943 148.045 737.861 148.048C722.352 148.05 706.843 148.048 691.334 148.044C689.104 148.043 686.875 148.042 684.645 148.042C681.285 148.041 677.925 148.04 674.566 148.039C643.334 148.031 612.103 148.026 580.872 148.03C579.106 148.031 579.106 148.031 577.305 148.031C571.34 148.032 565.375 148.033 559.41 148.033C558.226 148.034 557.041 148.034 555.82 148.034C553.425 148.034 551.029 148.035 548.634 148.035C511.359 148.04 474.085 148.032 436.81 148.014C394.915 147.993 353.019 147.983 311.124 147.987C306.655 147.987 302.187 147.987 297.718 147.988C296.618 147.988 295.518 147.988 294.384 147.988C277.788 147.989 261.191 147.982 244.595 147.972C225.716 147.96 206.837 147.958 187.959 147.971C177.4 147.977 166.842 147.976 156.283 147.962C149.222 147.954 142.16 147.956 135.098 147.968C131.081 147.974 127.063 147.976 123.046 147.964C93.3086 147.883 65.2588 148.578 43.2583 171.35Z" fill="#2093D0"/>
<path d="M0 238C0 188.294 40.2944 148 90 148H899C948.706 148 989 188.294 989 238V738H0V238Z" fill="#71CEF9"/>
<path d="M5.51855 774.198C328.233 774.198 650.947 774.198 983.44 774.198C977.134 798.437 965.36 815.919 947.602 827.512C933.028 835.686 918.732 837.728 903.005 837.7C901.559 837.702 900.113 837.705 898.667 837.708C894.69 837.715 890.714 837.715 886.738 837.712C882.412 837.711 878.087 837.718 873.762 837.724C865.182 837.734 856.602 837.737 848.022 837.738C837.745 837.739 827.469 837.748 817.192 837.757C792.354 837.779 767.515 837.787 742.677 837.793C730.926 837.796 719.175 837.801 707.424 837.806C667.195 837.823 626.967 837.838 586.738 837.843C584.213 837.843 581.688 837.843 579.163 837.843C576.632 837.844 574.1 837.844 571.569 837.844C566.491 837.845 561.413 837.846 556.335 837.846C554.446 837.846 554.446 837.846 552.52 837.847C511.696 837.851 470.872 837.873 430.049 837.904C386.883 837.937 343.718 837.956 300.553 837.958C295.814 837.958 291.074 837.958 286.335 837.958C285.168 837.958 284.001 837.959 282.799 837.959C264.027 837.96 245.254 837.975 226.481 837.995C207.609 838.014 188.737 838.018 169.865 838.008C158.657 838.002 147.449 838.007 136.241 838.028C128.747 838.041 121.254 838.04 113.76 838.026C109.495 838.019 105.23 838.018 100.965 838.035C71.5914 838.145 44.3366 836.771 21.501 809.718C15.2531 801.116 5.51855 786.501 5.51855 774.198Z" fill="#54B8E9"/>
<path d="M987.644 724.35C987.991 724.35 988.338 724.35 988.696 724.35C989.13 739.677 988.029 753.813 985.541 768.812C985.377 769.888 985.213 770.965 985.044 772.075C984.489 774.201 984.489 774.201 982.386 775.548C980.216 775.678 978.043 775.717 975.871 775.717C975.191 775.719 974.511 775.721 973.81 775.723C971.505 775.728 969.199 775.723 966.894 775.718C965.228 775.719 963.562 775.721 961.896 775.724C957.28 775.729 952.664 775.726 948.048 775.721C943.041 775.718 938.033 775.722 933.026 775.726C924.237 775.731 915.448 775.73 906.66 775.727C893.591 775.722 880.522 775.725 867.454 775.729C844.118 775.736 820.783 775.735 797.447 775.731C777.026 775.728 756.606 775.727 736.185 775.729C734.832 775.729 733.48 775.729 732.087 775.729C726.598 775.729 721.108 775.73 715.619 775.73C700.274 775.731 684.928 775.732 669.582 775.733C668.883 775.733 668.185 775.733 667.465 775.733C645.186 775.733 622.908 775.732 600.63 775.729C599.907 775.729 599.184 775.729 598.439 775.728C586.699 775.727 574.96 775.725 563.22 775.724C516.655 775.717 470.09 775.717 423.525 775.724C411.792 775.726 400.058 775.727 388.324 775.729C387.602 775.729 386.879 775.729 386.135 775.729C363.881 775.732 341.626 775.733 319.372 775.733C318.673 775.733 317.975 775.733 317.255 775.733C301.239 775.732 285.223 775.731 269.207 775.73C263.728 775.729 258.248 775.729 252.769 775.729C250.745 775.728 250.745 775.728 248.68 775.728C228.268 775.727 207.856 775.729 187.443 775.732C164.243 775.736 141.043 775.735 117.843 775.728C104.844 775.724 91.8457 775.723 78.8471 775.728C70.18 775.731 61.5129 775.73 52.8458 775.724C47.8973 775.72 42.9488 775.719 38.0003 775.724C33.5077 775.729 29.0151 775.727 24.5225 775.72C22.8985 775.719 21.2746 775.719 19.6507 775.723C17.4615 775.727 15.2724 775.723 13.0832 775.717C11.8664 775.717 10.6495 775.717 9.39577 775.717C6.56751 775.548 6.56748 775.548 4.46442 774.201C0.881044 759.241 0.258301 745.392 0.258301 729.739C326.096 729.739 651.933 729.739 987.644 729.739C987.644 727.961 987.644 726.182 987.644 724.35Z" fill="#66C4F0"/>
<path d="M693.508 774.78C697.062 774.788 700.616 774.797 704.17 774.806C791.746 775.02 879.323 775.251 981.328 775.544C981.328 776.878 981.328 778.212 981.328 779.586C660.002 779.586 338.676 779.586 7.61328 779.586C7.61328 778.252 7.61328 776.918 7.61328 775.544C53.6104 775.25 99.6076 775.01 145.605 774.799C148.439 774.786 151.273 774.773 154.106 774.76C252.282 774.309 350.458 774.133 693.508 774.78Z" fill="#5BBFEE"/>
</svg>
