<svg width="824" height="824" viewBox="0 0 824 824" fill="none" xmlns="http://www.w3.org/2000/svg">
<rect width="824" height="824" rx="227" fill="#FEFFE1"/>
<rect x="37" y="717" width="750" height="6" rx="3" fill="#AFAFB3"/>
<rect x="37" y="717" width="750" height="6" rx="3" fill="#AFAFB3"/>
<rect x="37" y="717" width="750" height="6" rx="3" fill="#AFAFB3"/>
<rect x="37" y="717" width="750" height="6" rx="3" fill="#AFAFB3"/>
<rect x="37" y="717" width="750" height="6" rx="3" fill="#AFAFB3"/>
<rect x="37" y="717" width="750" height="6" rx="3" fill="#AFAFB3"/>
<rect x="1" y="615" width="822" height="6" rx="3" fill="#AFAFB3"/>
<rect x="1" y="615" width="822" height="6" rx="3" fill="#AFAFB3"/>
<rect x="1" y="615" width="822" height="6" rx="3" fill="#AFAFB3"/>
<rect x="1" y="615" width="822" height="6" rx="3" fill="#AFAFB3"/>
<rect x="1" y="615" width="822" height="6" rx="3" fill="#AFAFB3"/>
<rect x="1" y="615" width="822" height="6" rx="3" fill="#AFAFB3"/>
<rect y="513" width="824" height="6" rx="3" fill="#AFAFB3"/>
<rect y="513" width="824" height="6" rx="3" fill="#AFAFB3"/>
<rect y="513" width="824" height="6" rx="3" fill="#AFAFB3"/>
<rect y="513" width="824" height="6" rx="3" fill="#AFAFB3"/>
<rect y="513" width="824" height="6" rx="3" fill="#AFAFB3"/>
<rect y="513" width="824" height="6" rx="3" fill="#AFAFB3"/>
<rect y="411" width="824" height="6" rx="3" fill="#AFAFB3"/>
<rect y="411" width="824" height="6" rx="3" fill="#AFAFB3"/>
<rect y="411" width="824" height="6" rx="3" fill="#AFAFB3"/>
<rect y="411" width="824" height="6" rx="3" fill="#AFAFB3"/>
<rect y="411" width="824" height="6" rx="3" fill="#AFAFB3"/>
<rect y="411" width="824" height="6" rx="3" fill="#AFAFB3"/>
<rect y="309" width="824" height="6" rx="3" fill="#AFAFB3"/>
<rect y="309" width="824" height="6" rx="3" fill="#AFAFB3"/>
<rect y="309" width="824" height="6" rx="3" fill="#AFAFB3"/>
<rect y="309" width="824" height="6" rx="3" fill="#AFAFB3"/>
<rect y="309" width="824" height="6" rx="3" fill="#AFAFB3"/>
<rect y="309" width="824" height="6" rx="3" fill="#AFAFB3"/>
<rect x="1" y="207" width="822" height="6" rx="3" fill="#AFAFB3"/>
<rect x="1" y="207" width="822" height="6" rx="3" fill="#AFAFB3"/>
<rect x="1" y="207" width="822" height="6" rx="3" fill="#AFAFB3"/>
<rect x="1" y="207" width="822" height="6" rx="3" fill="#AFAFB3"/>
<rect x="1" y="207" width="822" height="6" rx="3" fill="#AFAFB3"/>
<rect x="1" y="207" width="822" height="6" rx="3" fill="#AFAFB3"/>
<rect x="134" y="19" width="6" height="786" rx="3" fill="#FEB7B7"/>
</svg>
