<svg width="1024" height="1024" viewBox="0 0 1024 1024" fill="none" xmlns="http://www.w3.org/2000/svg">
<rect width="1024" height="1024" rx="227" fill="url(#paint0_linear_76_311)"/>
<rect x="171.495" y="171.495" width="183.922" height="183.922" rx="32" fill="url(#paint1_linear_76_311)"/>
<rect x="420.039" y="171.495" width="183.922" height="183.922" rx="32" fill="url(#paint2_linear_76_311)"/>
<rect x="668.582" y="171.495" width="183.922" height="183.922" rx="32" fill="url(#paint3_linear_76_311)"/>
<rect x="668.582" y="420.039" width="183.922" height="183.922" rx="32" fill="url(#paint4_linear_76_311)"/>
<rect x="420.039" y="420.039" width="183.922" height="183.922" rx="32" fill="url(#paint5_linear_76_311)"/>
<rect x="171.495" y="420.039" width="183.922" height="183.922" rx="32" fill="url(#paint6_linear_76_311)"/>
<rect x="171.495" y="668.583" width="183.922" height="183.922" rx="32" fill="url(#paint7_linear_76_311)"/>
<rect x="420.039" y="668.583" width="183.922" height="183.922" rx="32" fill="url(#paint8_linear_76_311)"/>
<rect x="668.582" y="668.583" width="183.922" height="183.922" rx="32" fill="url(#paint9_linear_76_311)"/>
<defs>
<linearGradient id="paint0_linear_76_311" x1="512" y1="0" x2="512" y2="1024" gradientUnits="userSpaceOnUse">
<stop stop-color="#F8FBFB"/>
<stop offset="1" stop-color="#F2F2F2"/>
</linearGradient>
<linearGradient id="paint1_linear_76_311" x1="263.456" y1="171.495" x2="263.456" y2="355.417" gradientUnits="userSpaceOnUse">
<stop stop-color="#95FC83"/>
<stop offset="1" stop-color="#0ED41A"/>
</linearGradient>
<linearGradient id="paint2_linear_76_311" x1="512" y1="171.495" x2="512" y2="355.417" gradientUnits="userSpaceOnUse">
<stop stop-color="#FEE77E"/>
<stop offset="1" stop-color="#FFA901"/>
</linearGradient>
<linearGradient id="paint3_linear_76_311" x1="760.543" y1="171.495" x2="760.543" y2="355.417" gradientUnits="userSpaceOnUse">
<stop stop-color="#FBAF1C"/>
<stop offset="1" stop-color="#EF6C22"/>
</linearGradient>
<linearGradient id="paint4_linear_76_311" x1="760.543" y1="420.039" x2="760.543" y2="603.961" gradientUnits="userSpaceOnUse">
<stop stop-color="#FD325A"/>
<stop offset="1" stop-color="#FD5364"/>
</linearGradient>
<linearGradient id="paint5_linear_76_311" x1="512" y1="420.039" x2="512" y2="603.961" gradientUnits="userSpaceOnUse">
<stop stop-color="#CFE5EC"/>
<stop offset="1" stop-color="#787877"/>
</linearGradient>
<linearGradient id="paint6_linear_76_311" x1="263.456" y1="420.039" x2="263.456" y2="603.961" gradientUnits="userSpaceOnUse">
<stop stop-color="#FD3A2F"/>
<stop offset="1" stop-color="#B70401"/>
</linearGradient>
<linearGradient id="paint7_linear_76_311" x1="263.456" y1="668.583" x2="263.456" y2="852.505" gradientUnits="userSpaceOnUse">
<stop stop-color="#C45FEE"/>
<stop offset="1" stop-color="#7826B4"/>
</linearGradient>
<linearGradient id="paint8_linear_76_311" x1="512" y1="668.583" x2="512" y2="852.505" gradientUnits="userSpaceOnUse">
<stop stop-color="#19E3FE"/>
<stop offset="1" stop-color="#1E56EE"/>
</linearGradient>
<linearGradient id="paint9_linear_76_311" x1="760.543" y1="668.583" x2="760.543" y2="852.505" gradientUnits="userSpaceOnUse">
<stop stop-color="#5FE5E3"/>
<stop offset="1" stop-color="#05BD78"/>
</linearGradient>
</defs>
</svg>
